<svg width="28" height="27" viewBox="0 0 28 27" fill="none" xmlns="http://www.w3.org/2000/svg">
<path d="M27.3069 6.44957C27.3056 5.96923 27.2617 5.48994 27.1758 5.01733C27.0799 4.43958 26.8975 3.87958 26.6347 3.3562C26.3465 2.80622 25.9713 2.30644 25.5237 1.87618C24.8481 1.21562 24.014 0.739995 23.1015 0.495045C22.2631 0.291862 21.4017 0.199959 20.5393 0.221707L20.5349 0.208374H7.45967V0.221707C6.96887 0.21773 6.4782 0.239613 5.9897 0.287264C5.45529 0.344414 4.92923 0.462976 4.42197 0.640602C3.58565 0.955548 2.8354 1.46328 2.23211 2.12258C1.62882 2.78188 1.18951 3.57416 0.94983 4.4351C0.748035 5.26618 0.656142 6.12015 0.676503 6.97514L0.666504 20.0931C0.675014 20.6871 0.715441 21.2802 0.787612 21.8698C0.876673 22.492 1.06066 23.0968 1.33315 23.6632C1.71789 24.4196 2.26544 25.0814 2.93645 25.601C3.41591 25.9831 3.95904 26.2776 4.54085 26.471C5.395 26.7346 6.28468 26.865 7.17856 26.8576C7.73855 26.861 8.29742 26.8754 8.8563 26.8732C12.9229 26.8554 16.9883 26.9021 21.0538 26.8476C21.5909 26.8359 22.1261 26.779 22.6537 26.6776C23.6508 26.5023 24.5788 26.0512 25.3326 25.3754C26.2201 24.6048 26.8399 23.5722 27.1025 22.4265C27.2641 21.6594 27.3412 20.877 27.3325 20.0931V19.9364C27.3325 19.8753 27.3103 6.62513 27.3069 6.44957ZM23.737 18.7886C23.5659 19.1886 22.7037 19.5187 21.2438 19.7442C21.1071 19.7664 21.0493 19.9875 20.9704 20.3498C20.9371 20.4998 20.9038 20.6464 20.8593 20.7998C20.846 20.865 20.8092 20.923 20.756 20.9629C20.7028 21.0028 20.6368 21.0219 20.5705 21.0165H20.5482C20.4084 21.0115 20.2694 20.9941 20.1327 20.9642C19.7724 20.8885 19.4053 20.8495 19.0372 20.8476C18.7728 20.8483 18.509 20.8706 18.2483 20.9142C17.6975 21.0536 17.1852 21.3153 16.7494 21.6798C16.0131 22.3085 15.0879 22.6734 14.1206 22.7165C14.0651 22.7165 14.0117 22.7143 13.9717 22.712C13.9392 22.7149 13.9066 22.7163 13.874 22.7165C12.9071 22.6739 11.9822 22.3094 11.2462 21.6809C10.8101 21.3161 10.2974 21.0541 9.74628 20.9142C9.48558 20.8705 9.22174 20.8482 8.95741 20.8476C8.58935 20.8512 8.22264 20.8926 7.86299 20.9709C7.72647 21.0028 7.58743 21.0229 7.44745 21.0309C7.37698 21.0388 7.3061 21.0202 7.24859 20.9787C7.19109 20.9372 7.15108 20.8758 7.13634 20.8064C7.08968 20.6509 7.05634 20.4987 7.02523 20.3531C6.94524 19.9887 6.88746 19.7664 6.7508 19.7453C5.29194 19.5198 4.42863 19.1886 4.25753 18.7864C4.24016 18.7463 4.23001 18.7034 4.22753 18.6597C4.22403 18.602 4.24209 18.545 4.27823 18.4999C4.31436 18.4547 4.36598 18.4246 4.42308 18.4153C5.63011 18.1969 6.71779 17.5502 7.48633 16.5942C7.90931 16.105 8.26094 15.5585 8.53075 14.9708L8.5352 14.9597C8.61478 14.8295 8.66496 14.6835 8.68223 14.5319C8.6995 14.3802 8.68345 14.2267 8.63519 14.0819C8.44742 13.6375 7.8241 13.4408 7.413 13.3097C7.31937 13.2817 7.22673 13.2506 7.13523 13.2163C6.7708 13.0719 6.17081 12.7674 6.25081 12.3463C6.31204 12.188 6.42121 12.0528 6.56304 11.9596C6.70488 11.8663 6.8723 11.8197 7.0419 11.8263C7.12444 11.8244 7.20639 11.8407 7.2819 11.8741C7.58956 12.0316 7.92766 12.1207 8.27298 12.1352C8.47802 12.1497 8.68113 12.0875 8.84297 11.9608C8.8326 11.7659 8.82074 11.5715 8.80741 11.3774C8.61973 10.062 8.69985 8.72217 9.04296 7.43848C9.44655 6.51717 10.1126 5.73519 10.958 5.19018C11.8033 4.64517 12.7905 4.36129 13.7962 4.37399L14.1895 4.37066C15.1965 4.35777 16.1851 4.64173 17.0317 5.1871C17.8784 5.73248 18.5458 6.51512 18.9505 7.43737C19.2938 8.72218 19.3739 10.0631 19.186 11.3796L19.1827 11.443L19.1516 11.9619C19.2986 12.0784 19.4818 12.1398 19.6694 12.1352C19.9945 12.1107 20.3117 12.0224 20.6027 11.8752C20.699 11.8333 20.8032 11.8124 20.9082 11.8141C21.0274 11.8137 21.1454 11.8363 21.256 11.8808L21.2615 11.883C21.3865 11.913 21.4998 11.9796 21.5868 12.0741C21.6739 12.1687 21.7308 12.2871 21.7504 12.4141C21.7549 12.6186 21.6038 12.923 20.8582 13.2174C20.767 13.2515 20.6748 13.2827 20.5816 13.3108C20.1693 13.4419 19.5471 13.6397 19.3594 14.083C19.3112 14.2276 19.2952 14.381 19.3125 14.5324C19.3298 14.6838 19.3799 14.8297 19.4594 14.9597L19.4638 14.9708C19.8368 15.8226 20.4016 16.5767 21.1142 17.1742C21.8267 17.7718 22.6677 18.1965 23.5715 18.4153C23.6285 18.4248 23.6799 18.455 23.716 18.5001C23.7521 18.5452 23.7703 18.6021 23.767 18.6597C23.7647 18.7041 23.7545 18.7478 23.737 18.7886Z" fill="#073D55"/>
</svg>
