<svg width="31" height="25" viewBox="0 0 31 25" fill="none" xmlns="http://www.w3.org/2000/svg">
<path d="M30.5242 3.31268C29.4108 3.78578 28.2148 4.10544 26.9575 4.24993C28.2548 3.50549 29.2254 2.33383 29.6882 0.953579C28.4693 1.64787 27.1353 2.13658 25.7442 2.39845C24.8087 1.44057 23.5696 0.805673 22.2193 0.592328C20.869 0.378983 19.483 0.599127 18.2765 1.21858C17.07 1.83804 16.1105 2.82214 15.5471 4.01811C14.9836 5.21408 14.8476 6.55501 15.1602 7.83269C12.6904 7.71377 10.2743 7.09817 8.06874 6.02584C5.86314 4.95352 3.9173 3.44842 2.35751 1.60825C1.82418 2.49051 1.51751 3.51343 1.51751 4.60283C1.51692 5.58355 1.76876 6.54924 2.25068 7.41423C2.73261 8.27922 3.42973 9.01677 4.28018 9.56142C3.29388 9.53133 2.32934 9.27575 1.46685 8.81597V8.89269C1.46675 10.2682 1.96289 11.6013 2.87109 12.666C3.77929 13.7306 5.04361 14.4611 6.44951 14.7335C5.53456 14.971 4.5753 15.006 3.64418 14.8358C4.04084 16.0194 4.81351 17.0543 5.854 17.7958C6.8945 18.5373 8.15073 18.9482 9.44685 18.971C7.24662 20.6273 4.52936 21.5258 1.73218 21.5219C1.23669 21.522 0.741613 21.4943 0.249512 21.4388C3.08881 23.1895 6.39397 24.1186 9.76951 24.115C21.1962 24.115 27.4428 15.0391 27.4428 7.1678C27.4428 6.91207 27.4362 6.65378 27.4242 6.39805C28.6392 5.55539 29.6881 4.51192 30.5215 3.31652L30.5242 3.31268Z" fill="#073D55"/>
</svg>
